<?xml version="1.0" encoding="UTF-8" standalone="no"?><!-- Generator: Gravit.io --><svg xmlns="http://www.w3.org/2000/svg" xmlns:xlink="http://www.w3.org/1999/xlink" style="isolation:isolate" viewBox="0 0 595.276 841.89" width="595.276pt" height="841.89pt"><defs><clipPath id="_clipPath_G8jhXD0EPbb6vPoDBKsjPZfgMCphaKNk"><rect width="595.276" height="841.89"/></clipPath></defs><g clip-path="url(#_clipPath_G8jhXD0EPbb6vPoDBKsjPZfgMCphaKNk)"><circle vector-effect="non-scaling-stroke" cx="291.7961132518012" cy="438.6475121460885" r="217.18964650695267" fill="none" stroke-width="20" stroke="rgb(0,0,0)" stroke-linejoin="miter" stroke-linecap="square" stroke-miterlimit="3"/><path d=" M 279.533 402.51 L 279.533 425.361 L 279.533 425.361 Q 279.533 438.154 275.09 448.897 L 275.09 448.897 L 275.09 448.897 Q 270.646 459.639 262.834 467.403 L 262.834 467.403 L 262.834 467.403 Q 255.021 475.166 244.279 479.561 L 244.279 479.561 L 244.279 479.561 Q 233.537 483.955 220.939 483.955 L 220.939 483.955 L 152.385 483.955 L 152.385 483.955 Q 149.65 483.955 147.307 482.979 L 147.307 482.979 L 147.307 482.979 Q 144.963 482.002 143.254 480.293 L 143.254 480.293 L 143.254 480.293 Q 141.545 478.584 140.568 476.24 L 140.568 476.24 L 140.568 476.24 Q 139.592 473.897 139.592 471.162 L 139.592 471.162 L 139.592 356.709 L 139.592 356.709 Q 139.592 354.072 140.568 351.729 L 140.568 351.729 L 140.568 351.729 Q 141.545 349.385 143.254 347.627 L 143.254 347.627 L 143.254 347.627 Q 144.963 345.869 147.307 344.893 L 147.307 344.893 L 147.307 344.893 Q 149.65 343.916 152.385 343.916 L 152.385 343.916 L 220.939 343.916 L 220.939 343.916 Q 233.537 343.916 244.279 348.311 L 244.279 348.311 L 244.279 348.311 Q 255.021 352.705 262.834 360.469 L 262.834 360.469 L 262.834 360.469 Q 270.646 368.233 275.09 379.024 L 275.09 379.024 L 275.09 379.024 Q 279.533 389.815 279.533 402.51 L 279.533 402.51 Z  M 254.142 425.361 L 254.142 402.51 L 254.142 402.51 Q 254.142 395.088 251.75 388.936 L 251.75 388.936 L 251.75 388.936 Q 249.357 382.783 244.963 378.438 L 244.963 378.438 L 244.963 378.438 Q 240.568 374.092 234.465 371.699 L 234.465 371.699 L 234.465 371.699 Q 228.361 369.307 220.939 369.307 L 220.939 369.307 L 164.982 369.307 L 164.982 458.565 L 220.939 458.565 L 220.939 458.565 Q 228.361 458.565 234.465 456.172 L 234.465 456.172 L 234.465 456.172 Q 240.568 453.779 244.963 449.434 L 244.963 449.434 L 244.963 449.434 Q 249.357 445.088 251.75 438.985 L 251.75 438.985 L 251.75 438.985 Q 254.142 432.881 254.142 425.361 L 254.142 425.361 Z  M 444.377 374.776 L 444.377 390.986 L 444.377 390.986 Q 444.377 399.678 442.228 406.514 L 442.228 406.514 L 442.228 406.514 Q 440.08 413.35 436.418 418.574 L 436.418 418.574 L 436.418 418.574 Q 432.756 423.799 427.971 427.51 L 427.971 427.51 L 427.971 427.51 Q 423.185 431.221 417.961 433.613 L 417.961 433.613 L 417.961 433.613 Q 412.736 436.006 407.414 437.08 L 407.414 437.08 L 407.414 437.08 Q 402.092 438.154 397.404 438.154 L 397.404 438.154 L 450.432 483.955 L 411.174 483.955 L 358.244 438.154 L 339.982 438.154 L 339.982 412.764 L 397.404 412.764 L 397.404 412.764 Q 402.189 412.373 406.144 410.762 L 406.144 410.762 L 406.144 410.762 Q 410.099 409.151 412.98 406.416 L 412.98 406.416 L 412.98 406.416 Q 415.861 403.682 417.424 399.824 L 417.424 399.824 L 417.424 399.824 Q 418.986 395.967 418.986 390.986 L 418.986 390.986 L 418.986 374.971 L 418.986 374.971 Q 418.986 372.822 418.449 371.699 L 418.449 371.699 L 418.449 371.699 Q 417.912 370.576 417.082 370.039 L 417.082 370.039 L 417.082 370.039 Q 416.252 369.502 415.324 369.404 L 415.324 369.404 L 415.324 369.404 Q 414.396 369.307 413.615 369.307 L 413.615 369.307 L 329.826 369.307 L 329.826 483.955 L 304.435 483.955 L 304.435 356.709 L 304.435 356.709 Q 304.435 354.072 305.412 351.729 L 305.412 351.729 L 305.412 351.729 Q 306.389 349.385 308.098 347.627 L 308.098 347.627 L 308.098 347.627 Q 309.807 345.869 312.15 344.893 L 312.15 344.893 L 312.15 344.893 Q 314.494 343.916 317.228 343.916 L 317.228 343.916 L 413.615 343.916 L 413.615 343.916 Q 422.111 343.916 427.971 346.992 L 427.971 346.992 L 427.971 346.992 Q 433.83 350.069 437.492 354.707 L 437.492 354.707 L 437.492 354.707 Q 441.154 359.346 442.765 364.717 L 442.765 364.717 L 442.765 364.717 Q 444.377 370.088 444.377 374.776 L 444.377 374.776 Z " fill="rgb(0,0,0)"/><path d=" M 317.487 528.794 L 317.487 532.221 L 317.487 532.221 Q 317.487 534.14 316.821 535.752 L 316.821 535.752 L 316.821 535.752 Q 316.154 537.363 314.982 538.528 L 314.982 538.528 L 314.982 538.528 Q 313.811 539.692 312.199 540.351 L 312.199 540.351 L 312.199 540.351 Q 310.588 541.011 308.698 541.011 L 308.698 541.011 L 298.415 541.011 L 298.415 541.011 Q 298.005 541.011 297.653 540.864 L 297.653 540.864 L 297.653 540.864 Q 297.302 540.718 297.045 540.461 L 297.045 540.461 L 297.045 540.461 Q 296.789 540.205 296.643 539.853 L 296.643 539.853 L 296.643 539.853 Q 296.496 539.502 296.496 539.092 L 296.496 539.092 L 296.496 521.924 L 296.496 521.924 Q 296.496 521.528 296.643 521.177 L 296.643 521.177 L 296.643 521.177 Q 296.789 520.825 297.045 520.561 L 297.045 520.561 L 297.045 520.561 Q 297.302 520.298 297.653 520.151 L 297.653 520.151 L 297.653 520.151 Q 298.005 520.005 298.415 520.005 L 298.415 520.005 L 308.698 520.005 L 308.698 520.005 Q 310.588 520.005 312.199 520.664 L 312.199 520.664 L 312.199 520.664 Q 313.811 521.323 314.982 522.488 L 314.982 522.488 L 314.982 522.488 Q 316.154 523.652 316.821 525.271 L 316.821 525.271 L 316.821 525.271 Q 317.487 526.889 317.487 528.794 L 317.487 528.794 Z  M 313.679 532.221 L 313.679 528.794 L 313.679 528.794 Q 313.679 527.68 313.32 526.758 L 313.32 526.758 L 313.32 526.758 Q 312.961 525.835 312.302 525.183 L 312.302 525.183 L 312.302 525.183 Q 311.643 524.531 310.727 524.172 L 310.727 524.172 L 310.727 524.172 Q 309.812 523.813 308.698 523.813 L 308.698 523.813 L 300.305 523.813 L 300.305 537.202 L 308.698 537.202 L 308.698 537.202 Q 309.812 537.202 310.727 536.843 L 310.727 536.843 L 310.727 536.843 Q 311.643 536.484 312.302 535.832 L 312.302 535.832 L 312.302 535.832 Q 312.961 535.18 313.32 534.265 L 313.32 534.265 L 313.32 534.265 Q 313.679 533.349 313.679 532.221 L 313.679 532.221 Z  M 337.834 530.42 L 337.834 530.42 L 337.834 530.42 Q 337.834 531.211 337.556 532.126 L 337.556 532.126 L 337.556 532.126 Q 337.277 533.042 336.655 533.825 L 336.655 533.825 L 336.655 533.825 Q 336.032 534.609 335.029 535.137 L 335.029 535.137 L 335.029 535.137 Q 334.025 535.664 332.59 535.664 L 332.59 535.664 L 325.72 535.664 L 325.72 532.046 L 332.59 532.046 L 332.59 532.046 Q 333.366 532.046 333.791 531.57 L 333.791 531.57 L 333.791 531.57 Q 334.216 531.094 334.216 530.39 L 334.216 530.39 L 334.216 530.39 Q 334.216 529.643 333.74 529.219 L 333.74 529.219 L 333.74 529.219 Q 333.264 528.794 332.59 528.794 L 332.59 528.794 L 325.72 528.794 L 325.72 528.794 Q 324.943 528.794 324.519 529.27 L 324.519 529.27 L 324.519 529.27 Q 324.094 529.746 324.094 530.449 L 324.094 530.449 L 324.094 535.766 L 324.094 535.766 Q 324.094 536.528 324.57 536.953 L 324.57 536.953 L 324.57 536.953 Q 325.046 537.378 325.749 537.378 L 325.749 537.378 L 332.59 537.378 L 332.59 541.011 L 325.72 541.011 L 325.72 541.011 Q 324.929 541.011 324.013 540.732 L 324.013 540.732 L 324.013 540.732 Q 323.098 540.454 322.314 539.831 L 322.314 539.831 L 322.314 539.831 Q 321.53 539.209 321.003 538.205 L 321.003 538.205 L 321.003 538.205 Q 320.476 537.202 320.476 535.766 L 320.476 535.766 L 320.476 530.42 L 320.476 530.42 Q 320.476 529.629 320.754 528.713 L 320.754 528.713 L 320.754 528.713 Q 321.032 527.798 321.655 527.014 L 321.655 527.014 L 321.655 527.014 Q 322.277 526.23 323.281 525.703 L 323.281 525.703 L 323.281 525.703 Q 324.284 525.176 325.72 525.176 L 325.72 525.176 L 332.59 525.176 L 332.59 525.176 Q 333.381 525.176 334.296 525.454 L 334.296 525.454 L 334.296 525.454 Q 335.212 525.732 335.996 526.355 L 335.996 526.355 L 335.996 526.355 Q 336.779 526.977 337.307 527.981 L 337.307 527.981 L 337.307 527.981 Q 337.834 528.984 337.834 530.42 Z  M 355.251 525.176 L 359.294 525.176 L 359.294 525.176 Q 358.649 527.182 357.785 529.131 L 357.785 529.131 L 357.785 529.131 Q 356.921 531.079 355.8 532.844 L 355.8 532.844 L 355.8 532.844 Q 354.68 534.609 353.295 536.111 L 353.295 536.111 L 353.295 536.111 Q 351.911 537.612 350.234 538.703 L 350.234 538.703 L 350.234 538.703 Q 348.557 539.795 346.586 540.417 L 346.586 540.417 L 346.586 540.417 Q 344.616 541.04 342.316 541.04 L 342.316 541.04 L 342.316 541.04 Q 341.921 541.04 341.569 540.893 L 341.569 540.893 L 341.569 540.893 Q 341.218 540.747 340.954 540.491 L 340.954 540.491 L 340.954 540.491 Q 340.69 540.234 340.544 539.89 L 340.544 539.89 L 340.544 539.89 Q 340.398 539.546 340.398 539.15 L 340.398 539.15 L 340.398 525.176 L 344.206 525.176 L 344.206 537.085 L 344.206 537.085 Q 345.598 537.085 346.879 536.484 L 346.879 536.484 L 346.879 536.484 Q 348.161 535.884 349.304 534.895 L 349.304 534.895 L 349.304 534.895 Q 350.446 533.906 351.42 532.646 L 351.42 532.646 L 351.42 532.646 Q 352.395 531.387 353.156 530.061 L 353.156 530.061 L 353.156 530.061 Q 353.918 528.735 354.453 527.461 L 354.453 527.461 L 354.453 527.461 Q 354.987 526.186 355.251 525.176 L 355.251 525.176 Z  M 377.692 530.42 L 377.692 530.42 L 377.692 530.42 Q 377.692 531.211 377.414 532.126 L 377.414 532.126 L 377.414 532.126 Q 377.136 533.042 376.513 533.825 L 376.513 533.825 L 376.513 533.825 Q 375.891 534.609 374.887 535.137 L 374.887 535.137 L 374.887 535.137 Q 373.884 535.664 372.448 535.664 L 372.448 535.664 L 365.578 535.664 L 365.578 532.046 L 372.448 532.046 L 372.448 532.046 Q 373.225 532.046 373.649 531.57 L 373.649 531.57 L 373.649 531.57 Q 374.074 531.094 374.074 530.39 L 374.074 530.39 L 374.074 530.39 Q 374.074 529.643 373.598 529.219 L 373.598 529.219 L 373.598 529.219 Q 373.122 528.794 372.448 528.794 L 372.448 528.794 L 365.578 528.794 L 365.578 528.794 Q 364.802 528.794 364.377 529.27 L 364.377 529.27 L 364.377 529.27 Q 363.952 529.746 363.952 530.449 L 363.952 530.449 L 363.952 535.766 L 363.952 535.766 Q 363.952 536.528 364.428 536.953 L 364.428 536.953 L 364.428 536.953 Q 364.904 537.378 365.607 537.378 L 365.607 537.378 L 372.448 537.378 L 372.448 541.011 L 365.578 541.011 L 365.578 541.011 Q 364.787 541.011 363.872 540.732 L 363.872 540.732 L 363.872 540.732 Q 362.956 540.454 362.172 539.831 L 362.172 539.831 L 362.172 539.831 Q 361.389 539.209 360.861 538.205 L 360.861 538.205 L 360.861 538.205 Q 360.334 537.202 360.334 535.766 L 360.334 535.766 L 360.334 530.42 L 360.334 530.42 Q 360.334 529.629 360.612 528.713 L 360.612 528.713 L 360.612 528.713 Q 360.891 527.798 361.513 527.014 L 361.513 527.014 L 361.513 527.014 Q 362.136 526.23 363.139 525.703 L 363.139 525.703 L 363.139 525.703 Q 364.143 525.176 365.578 525.176 L 365.578 525.176 L 372.448 525.176 L 372.448 525.176 Q 373.239 525.176 374.155 525.454 L 374.155 525.454 L 374.155 525.454 Q 375.07 525.732 375.854 526.355 L 375.854 526.355 L 375.854 526.355 Q 376.638 526.977 377.165 527.981 L 377.165 527.981 L 377.165 527.981 Q 377.692 528.984 377.692 530.42 Z  M 387.214 537.202 L 387.214 541.011 L 385.515 541.011 L 385.515 541.011 Q 384.694 541.011 383.764 540.732 L 383.764 540.732 L 383.764 540.732 Q 382.834 540.454 382.028 539.817 L 382.028 539.817 L 382.028 539.817 Q 381.223 539.179 380.695 538.161 L 380.695 538.161 L 380.695 538.161 Q 380.168 537.143 380.168 535.664 L 380.168 535.664 L 380.168 518.481 L 383.977 518.481 L 383.977 535.664 L 383.977 535.664 Q 383.977 536.367 384.416 536.784 L 384.416 536.784 L 384.416 536.784 Q 384.856 537.202 385.515 537.202 L 385.515 537.202 L 387.214 537.202 Z  M 406.887 530.508 L 406.887 535.664 L 406.887 535.664 Q 406.887 536.645 406.638 537.429 L 406.638 537.429 L 406.638 537.429 Q 406.389 538.213 405.979 538.806 L 405.979 538.806 L 405.979 538.806 Q 405.568 539.399 405.026 539.817 L 405.026 539.817 L 405.026 539.817 Q 404.484 540.234 403.891 540.498 L 403.891 540.498 L 403.891 540.498 Q 403.298 540.762 402.69 540.886 L 402.69 540.886 L 402.69 540.886 Q 402.082 541.011 401.54 541.011 L 401.54 541.011 L 394.67 541.011 L 394.67 541.011 Q 393.879 541.011 392.941 540.732 L 392.941 540.732 L 392.941 540.732 Q 392.004 540.454 391.206 539.817 L 391.206 539.817 L 391.206 539.817 Q 390.407 539.179 389.873 538.161 L 389.873 538.161 L 389.873 538.161 Q 389.338 537.143 389.338 535.664 L 389.338 535.664 L 389.338 530.508 L 389.338 530.508 Q 389.338 529.043 389.873 528.025 L 389.873 528.025 L 389.873 528.025 Q 390.407 527.007 391.206 526.369 L 391.206 526.369 L 391.206 526.369 Q 392.004 525.732 392.941 525.454 L 392.941 525.454 L 392.941 525.454 Q 393.879 525.176 394.67 525.176 L 394.67 525.176 L 401.54 525.176 L 401.54 525.176 Q 403.005 525.176 404.03 525.703 L 404.03 525.703 L 404.03 525.703 Q 405.056 526.23 405.686 527.029 L 405.686 527.029 L 405.686 527.029 Q 406.315 527.827 406.601 528.764 L 406.601 528.764 L 406.601 528.764 Q 406.887 529.702 406.887 530.508 L 406.887 530.508 Z  M 403.078 535.664 L 403.078 530.537 L 403.078 530.537 Q 403.078 529.746 402.683 529.365 L 402.683 529.365 L 402.683 529.365 Q 402.287 528.984 401.54 528.984 L 401.54 528.984 L 394.699 528.984 L 394.699 528.984 Q 393.938 528.984 393.542 529.372 L 393.542 529.372 L 393.542 529.372 Q 393.147 529.761 393.147 530.508 L 393.147 530.508 L 393.147 535.664 L 393.147 535.664 Q 393.147 536.411 393.542 536.806 L 393.542 536.806 L 393.542 536.806 Q 393.938 537.202 394.699 537.202 L 394.699 537.202 L 401.54 537.202 L 401.54 537.202 Q 402.316 537.202 402.697 536.806 L 402.697 536.806 L 402.697 536.806 Q 403.078 536.411 403.078 535.664 L 403.078 535.664 Z  M 427.585 530.508 L 427.585 535.664 L 427.585 535.664 Q 427.585 536.645 427.336 537.429 L 427.336 537.429 L 427.336 537.429 Q 427.087 538.213 426.677 538.806 L 426.677 538.806 L 426.677 538.806 Q 426.267 539.399 425.725 539.817 L 425.725 539.817 L 425.725 539.817 Q 425.183 540.234 424.589 540.498 L 424.589 540.498 L 424.589 540.498 Q 423.996 540.762 423.396 540.886 L 423.396 540.886 L 423.396 540.886 Q 422.795 541.011 422.253 541.011 L 422.253 541.011 L 415.383 541.011 L 415.383 537.202 L 422.253 537.202 L 422.253 537.202 Q 423.015 537.202 423.396 536.806 L 423.396 536.806 L 423.396 536.806 Q 423.776 536.411 423.776 535.664 L 423.776 535.664 L 423.776 530.537 L 423.776 530.537 Q 423.776 529.746 423.388 529.365 L 423.388 529.365 L 423.388 529.365 Q 423 528.984 422.253 528.984 L 422.253 528.984 L 415.412 528.984 L 415.412 528.984 Q 414.636 528.984 414.24 529.372 L 414.24 529.372 L 414.24 529.372 Q 413.845 529.761 413.845 530.508 L 413.845 530.508 L 413.845 545.962 L 410.036 545.962 L 410.036 530.508 L 410.036 530.508 Q 410.036 529.526 410.285 528.75 L 410.285 528.75 L 410.285 528.75 Q 410.534 527.973 410.952 527.38 L 410.952 527.38 L 410.952 527.38 Q 411.369 526.787 411.911 526.369 L 411.911 526.369 L 411.911 526.369 Q 412.453 525.952 413.046 525.688 L 413.046 525.688 L 413.046 525.688 Q 413.64 525.425 414.248 525.3 L 414.248 525.3 L 414.248 525.3 Q 414.856 525.176 415.383 525.176 L 415.383 525.176 L 422.253 525.176 L 422.253 525.176 Q 423.234 525.176 424.011 525.425 L 424.011 525.425 L 424.011 525.425 Q 424.787 525.674 425.38 526.084 L 425.38 526.084 L 425.38 526.084 Q 425.974 526.494 426.391 527.036 L 426.391 527.036 L 426.391 527.036 Q 426.809 527.578 427.072 528.171 L 427.072 528.171 L 427.072 528.171 Q 427.336 528.764 427.461 529.365 L 427.461 529.365 L 427.461 529.365 Q 427.585 529.966 427.585 530.508 L 427.585 530.508 Z  M 447.873 530.42 L 447.873 530.42 L 447.873 530.42 Q 447.873 531.211 447.595 532.126 L 447.595 532.126 L 447.595 532.126 Q 447.316 533.042 446.694 533.825 L 446.694 533.825 L 446.694 533.825 Q 446.071 534.609 445.068 535.137 L 445.068 535.137 L 445.068 535.137 Q 444.065 535.664 442.629 535.664 L 442.629 535.664 L 435.759 535.664 L 435.759 532.046 L 442.629 532.046 L 442.629 532.046 Q 443.405 532.046 443.83 531.57 L 443.83 531.57 L 443.83 531.57 Q 444.255 531.094 444.255 530.39 L 444.255 530.39 L 444.255 530.39 Q 444.255 529.643 443.779 529.219 L 443.779 529.219 L 443.779 529.219 Q 443.303 528.794 442.629 528.794 L 442.629 528.794 L 435.759 528.794 L 435.759 528.794 Q 434.982 528.794 434.558 529.27 L 434.558 529.27 L 434.558 529.27 Q 434.133 529.746 434.133 530.449 L 434.133 530.449 L 434.133 535.766 L 434.133 535.766 Q 434.133 536.528 434.609 536.953 L 434.609 536.953 L 434.609 536.953 Q 435.085 537.378 435.788 537.378 L 435.788 537.378 L 442.629 537.378 L 442.629 541.011 L 435.759 541.011 L 435.759 541.011 Q 434.968 541.011 434.052 540.732 L 434.052 540.732 L 434.052 540.732 Q 433.137 540.454 432.353 539.831 L 432.353 539.831 L 432.353 539.831 Q 431.569 539.209 431.042 538.205 L 431.042 538.205 L 431.042 538.205 Q 430.515 537.202 430.515 535.766 L 430.515 535.766 L 430.515 530.42 L 430.515 530.42 Q 430.515 529.629 430.793 528.713 L 430.793 528.713 L 430.793 528.713 Q 431.071 527.798 431.694 527.014 L 431.694 527.014 L 431.694 527.014 Q 432.316 526.23 433.32 525.703 L 433.32 525.703 L 433.32 525.703 Q 434.323 525.176 435.759 525.176 L 435.759 525.176 L 442.629 525.176 L 442.629 525.176 Q 443.42 525.176 444.336 525.454 L 444.336 525.454 L 444.336 525.454 Q 445.251 525.732 446.035 526.355 L 446.035 526.355 L 446.035 526.355 Q 446.818 526.977 447.346 527.981 L 447.346 527.981 L 447.346 527.981 Q 447.873 528.984 447.873 530.42 Z  M 464.294 525.176 L 464.294 528.984 L 455.725 528.984 L 455.725 528.984 Q 454.948 528.984 454.553 529.372 L 454.553 529.372 L 454.553 529.372 Q 454.157 529.761 454.157 530.508 L 454.157 530.508 L 454.157 541.011 L 450.349 541.011 L 450.349 530.508 L 450.349 530.508 Q 450.349 529.526 450.598 528.75 L 450.598 528.75 L 450.598 528.75 Q 450.847 527.973 451.264 527.38 L 451.264 527.38 L 451.264 527.38 Q 451.682 526.787 452.224 526.369 L 452.224 526.369 L 452.224 526.369 Q 452.766 525.952 453.359 525.688 L 453.359 525.688 L 453.359 525.688 Q 453.952 525.425 454.56 525.3 L 454.56 525.3 L 454.56 525.3 Q 455.168 525.176 455.695 525.176 L 455.695 525.176 L 464.294 525.176 Z  M 144.987 528.589 L 144.987 532.427 L 132.946 532.427 L 132.946 528.589 L 144.987 528.589 Z  M 146.687 520.005 L 146.687 523.813 L 131.423 523.813 L 131.423 541.011 L 127.614 541.011 L 127.614 521.924 L 127.614 521.924 Q 127.614 521.528 127.761 521.177 L 127.761 521.177 L 127.761 521.177 Q 127.907 520.825 128.164 520.561 L 128.164 520.561 L 128.164 520.561 Q 128.42 520.298 128.772 520.151 L 128.772 520.151 L 128.772 520.151 Q 129.123 520.005 129.533 520.005 L 129.533 520.005 L 146.687 520.005 Z  M 166.462 525.176 L 166.462 539.092 L 166.462 539.092 Q 166.462 539.502 166.315 539.853 L 166.315 539.853 L 166.315 539.853 Q 166.169 540.205 165.913 540.461 L 165.913 540.461 L 165.913 540.461 Q 165.656 540.718 165.312 540.864 L 165.312 540.864 L 165.312 540.864 Q 164.968 541.011 164.572 541.011 L 164.572 541.011 L 155.959 541.011 L 155.959 541.011 Q 155.256 541.011 154.458 540.849 L 154.458 540.849 L 154.458 540.849 Q 153.659 540.688 152.883 540.329 L 152.883 540.329 L 152.883 540.329 Q 152.107 539.97 151.381 539.421 L 151.381 539.421 L 151.381 539.421 Q 150.656 538.872 150.114 538.088 L 150.114 538.088 L 150.114 538.088 Q 149.572 537.304 149.243 536.279 L 149.243 536.279 L 149.243 536.279 Q 148.913 535.254 148.913 533.965 L 148.913 533.965 L 148.913 525.176 L 152.722 525.176 L 152.722 533.965 L 152.722 533.965 Q 152.722 534.712 152.978 535.305 L 152.978 535.305 L 152.978 535.305 Q 153.234 535.898 153.674 536.323 L 153.674 536.323 L 153.674 536.323 Q 154.113 536.748 154.707 536.975 L 154.707 536.975 L 154.707 536.975 Q 155.3 537.202 155.988 537.202 L 155.988 537.202 L 162.653 537.202 L 162.653 525.176 L 166.462 525.176 Z  M 176.994 537.202 L 176.994 541.011 L 175.295 541.011 L 175.295 541.011 Q 174.475 541.011 173.545 540.732 L 173.545 540.732 L 173.545 540.732 Q 172.614 540.454 171.809 539.817 L 171.809 539.817 L 171.809 539.817 Q 171.003 539.179 170.476 538.161 L 170.476 538.161 L 170.476 538.161 Q 169.948 537.143 169.948 535.664 L 169.948 535.664 L 169.948 518.481 L 173.757 518.481 L 173.757 535.664 L 173.757 535.664 Q 173.757 536.367 174.196 536.784 L 174.196 536.784 L 174.196 536.784 Q 174.636 537.202 175.295 537.202 L 175.295 537.202 L 176.994 537.202 Z  M 186.399 537.202 L 186.399 541.011 L 184.699 541.011 L 184.699 541.011 Q 183.879 541.011 182.949 540.732 L 182.949 540.732 L 182.949 540.732 Q 182.019 540.454 181.213 539.817 L 181.213 539.817 L 181.213 539.817 Q 180.407 539.179 179.88 538.161 L 179.88 538.161 L 179.88 538.161 Q 179.353 537.143 179.353 535.664 L 179.353 535.664 L 179.353 518.481 L 183.161 518.481 L 183.161 535.664 L 183.161 535.664 Q 183.161 536.367 183.601 536.784 L 183.601 536.784 L 183.601 536.784 Q 184.04 537.202 184.699 537.202 L 184.699 537.202 L 186.399 537.202 Z  M 209.455 534.829 L 209.455 534.829 L 209.455 534.829 Q 209.455 535.957 209.17 536.858 L 209.17 536.858 L 209.17 536.858 Q 208.884 537.759 208.415 538.447 L 208.415 538.447 L 208.415 538.447 Q 207.946 539.136 207.316 539.619 L 207.316 539.619 L 207.316 539.619 Q 206.687 540.102 206.013 540.41 L 206.013 540.41 L 206.013 540.41 Q 205.339 540.718 204.643 540.864 L 204.643 540.864 L 204.643 540.864 Q 203.947 541.011 203.332 541.011 L 203.332 541.011 L 188.64 541.011 L 188.64 537.202 L 203.332 537.202 L 203.332 537.202 Q 204.431 537.202 205.039 536.557 L 205.039 536.557 L 205.039 536.557 Q 205.647 535.913 205.647 534.829 L 205.647 534.829 L 205.647 534.829 Q 205.647 534.302 205.485 533.862 L 205.485 533.862 L 205.485 533.862 Q 205.324 533.423 205.024 533.1 L 205.024 533.1 L 205.024 533.1 Q 204.724 532.778 204.292 532.602 L 204.292 532.602 L 204.292 532.602 Q 203.859 532.427 203.332 532.427 L 203.332 532.427 L 194.572 532.427 L 194.572 532.427 Q 193.649 532.427 192.58 532.097 L 192.58 532.097 L 192.58 532.097 Q 191.511 531.767 190.595 531.035 L 190.595 531.035 L 190.595 531.035 Q 189.68 530.303 189.072 529.116 L 189.072 529.116 L 189.072 529.116 Q 188.464 527.929 188.464 526.216 L 188.464 526.216 L 188.464 526.216 Q 188.464 524.502 189.072 523.323 L 189.072 523.323 L 189.072 523.323 Q 189.68 522.143 190.595 521.404 L 190.595 521.404 L 190.595 521.404 Q 191.511 520.664 192.58 520.334 L 192.58 520.334 L 192.58 520.334 Q 193.649 520.005 194.572 520.005 L 194.572 520.005 L 207.536 520.005 L 207.536 523.813 L 194.572 523.813 L 194.572 523.813 Q 193.488 523.813 192.88 524.472 L 192.88 524.472 L 192.88 524.472 Q 192.273 525.132 192.273 526.216 L 192.273 526.216 L 192.273 526.216 Q 192.273 527.314 192.88 527.951 L 192.88 527.951 L 192.88 527.951 Q 193.488 528.589 194.572 528.589 L 194.572 528.589 L 203.332 528.589 L 203.361 528.589 L 203.361 528.589 Q 203.977 528.603 204.665 528.757 L 204.665 528.757 L 204.665 528.757 Q 205.354 528.911 206.035 529.233 L 206.035 529.233 L 206.035 529.233 Q 206.716 529.555 207.331 530.046 L 207.331 530.046 L 207.331 530.046 Q 207.946 530.537 208.422 531.225 L 208.422 531.225 L 208.422 531.225 Q 208.899 531.914 209.177 532.807 L 209.177 532.807 L 209.177 532.807 Q 209.455 533.701 209.455 534.829 Z  M 225.92 525.176 L 225.92 528.984 L 219.27 528.984 L 219.27 541.011 L 215.417 541.011 L 215.417 528.984 L 210.466 528.984 L 210.466 525.176 L 215.417 525.176 L 215.417 520.005 L 219.27 520.005 L 219.27 525.176 L 225.92 525.176 Z  M 243.864 530.42 L 243.864 535.766 L 243.864 535.766 Q 243.864 536.557 243.586 537.473 L 243.586 537.473 L 243.586 537.473 Q 243.308 538.388 242.685 539.172 L 242.685 539.172 L 242.685 539.172 Q 242.063 539.956 241.059 540.483 L 241.059 540.483 L 241.059 540.483 Q 240.056 541.011 238.62 541.011 L 238.62 541.011 L 231.75 541.011 L 231.75 541.011 Q 230.959 541.011 230.044 540.732 L 230.044 540.732 L 230.044 540.732 Q 229.128 540.454 228.344 539.831 L 228.344 539.831 L 228.344 539.831 Q 227.561 539.209 227.033 538.205 L 227.033 538.205 L 227.033 538.205 Q 226.506 537.202 226.506 535.766 L 226.506 535.766 L 226.506 535.766 Q 226.506 534.975 226.784 534.053 L 226.784 534.053 L 226.784 534.053 Q 227.063 533.13 227.685 532.346 L 227.685 532.346 L 227.685 532.346 Q 228.308 531.562 229.311 531.035 L 229.311 531.035 L 229.311 531.035 Q 230.315 530.508 231.75 530.508 L 231.75 530.508 L 238.62 530.508 L 238.62 534.14 L 231.75 534.14 L 231.75 534.14 Q 230.974 534.14 230.549 534.616 L 230.549 534.616 L 230.549 534.616 Q 230.124 535.093 230.124 535.796 L 230.124 535.796 L 230.124 535.796 Q 230.124 536.543 230.615 536.96 L 230.615 536.96 L 230.615 536.96 Q 231.106 537.378 231.779 537.378 L 231.779 537.378 L 238.62 537.378 L 238.62 537.378 Q 239.397 537.378 239.821 536.909 L 239.821 536.909 L 239.821 536.909 Q 240.246 536.44 240.246 535.737 L 240.246 535.737 L 240.246 530.42 L 240.246 530.42 Q 240.246 529.673 239.785 529.233 L 239.785 529.233 L 239.785 529.233 Q 239.323 528.794 238.62 528.794 L 238.62 528.794 L 230.256 528.794 L 230.256 525.176 L 238.62 525.176 L 238.62 525.176 Q 239.411 525.176 240.327 525.454 L 240.327 525.454 L 240.327 525.454 Q 241.242 525.732 242.026 526.355 L 242.026 526.355 L 242.026 526.355 Q 242.81 526.977 243.337 527.981 L 243.337 527.981 L 243.337 527.981 Q 243.864 528.984 243.864 530.42 L 243.864 530.42 Z  M 262.453 537.202 L 262.453 541.011 L 252.126 541.011 L 252.126 541.011 Q 251.335 541.011 250.398 540.732 L 250.398 540.732 L 250.398 540.732 Q 249.46 540.454 248.662 539.817 L 248.662 539.817 L 248.662 539.817 Q 247.863 539.179 247.329 538.161 L 247.329 538.161 L 247.329 538.161 Q 246.794 537.143 246.794 535.664 L 246.794 535.664 L 246.794 530.508 L 246.794 530.508 Q 246.794 529.966 246.919 529.365 L 246.919 529.365 L 246.919 529.365 Q 247.043 528.764 247.307 528.171 L 247.307 528.171 L 247.307 528.171 Q 247.57 527.578 247.988 527.036 L 247.988 527.036 L 247.988 527.036 Q 248.405 526.494 248.999 526.084 L 248.999 526.084 L 248.999 526.084 Q 249.592 525.674 250.368 525.425 L 250.368 525.425 L 250.368 525.425 Q 251.145 525.176 252.126 525.176 L 252.126 525.176 L 262.453 525.176 L 262.453 528.984 L 252.126 528.984 L 252.126 528.984 Q 251.379 528.984 250.991 529.365 L 250.991 529.365 L 250.991 529.365 Q 250.603 529.746 250.603 530.537 L 250.603 530.537 L 250.603 535.664 L 250.603 535.664 Q 250.603 536.411 250.998 536.806 L 250.998 536.806 L 250.998 536.806 Q 251.394 537.202 252.155 537.202 L 252.155 537.202 L 262.453 537.202 Z  M 275.241 532.368 L 284.206 541.011 L 278.713 541.011 L 271.037 533.598 L 271.037 533.598 Q 270.393 533.012 270.437 532.134 L 270.437 532.134 L 270.437 532.134 Q 270.466 531.723 270.649 531.365 L 270.649 531.365 L 270.649 531.365 Q 270.832 531.006 271.154 530.757 L 271.154 530.757 L 278.112 525.146 L 284.206 525.146 L 275.241 532.368 Z  M 269.47 518.481 L 269.47 541.011 L 265.661 541.011 L 265.661 518.481 L 269.47 518.481 Z " fill="rgb(0,0,0)"/></g></svg>